# xmcd CD database file
#
# Track frame offsets:
#	150
#	42087
#	89157
#	135982
#	228200
#
# Disc length: 3388 seconds
#
# Revision: 0
# Processed by: cddbd v1.4PL0 Copyright (c) Steve Scherf et al.
# Submitted via: CDex 1.50
#
DISCID=360d3a05
DTITLE=Onishi Junko - Junko Onishi Trio
DYEAR=1995
DGENRE=Jazz
TTITLE0=The House Of Blue Lights (Gigi Gryce)
TTITLE1=Never Let Me Go (Jay Livingston - Ray Evans)
TTITLE2=Brilliant Corners (Thelonious Monk)
TTITLE3=Ringo Oiwake (Fujio Ozawa - Masao Yoneyama)
TTITLE4=Tea For Two (Irving Ceasar - Vincent Youmans)
EXTD=YEAR: 1995
EXTT0=
EXTT1=
EXTT2=
EXTT3=
EXTT4=
PLAYORDER=
